# xmcd
#
# Track frame offsets: 
#        150
#        18625
#        36580
#        51087
#        63592
#        83152
#        94882
#        116342
#        137207
#        167625
#        192347
#        244772
#
# Disc length: 3698 seconds
#
# Revision: 5
# Processed by: cddbd v1.5.2PL0 Copyright (c) Steve Scherf et al.
# Submitted via: ExactAudioCopyFreeDBPlugin 1.0
#
DISCID=a80e700c
DTITLE=Santana - Santana
DYEAR=1969
DGENRE=Blues
TTITLE0=Waiting
TTITLE1=Evil Ways
TTITLE2=Shades of Time
TTITLE3=Savor
TTITLE4=Jingo
TTITLE5=Persuasion
TTITLE6=Treat
TTITLE7=You Just Don't Care
TTITLE8=Soul Sacrifice
TTITLE9=Savor [live at the woodstock 1969]
TTITLE10=Soul Sacrifice [live at the woodstock 1969]
TTITLE11=Fried Neckbones [live at the woodstock 1969]
EXTD=YEAR: 1969
EXTT0=
EXTT1=
EXTT2=
EXTT3=
EXTT4=
EXTT5=
EXTT6=
EXTT7=
EXTT8=
EXTT9=
EXTT10=
EXTT11=
PLAYORDER=
